<svg xmlns="http://www.w3.org/2000/svg" width="314" height="281" viewBox="0 0 314 281">
<path d="M 160,213 L 161,214 L 161,216 L 162,216 L 161,215 L 161,214 Z" fill="#d7d5c3" /><path d="M 143,211 L 143,214 L 145,216 L 145,217 L 146,218 L 146,219 L 147,220 L 147,224 L 149,226 L 149,228 L 152,231 L 152,233 L 153,234 L 154,234 L 156,232 L 156,231 L 161,226 L 161,225 L 162,224 L 161,224 L 161,226 L 159,228 L 158,228 L 158,229 L 156,231 L 156,232 L 154,234 L 152,232 L 152,230 L 150,228 L 150,226 L 149,225 L 148,225 L 147,224 L 147,219 L 145,217 L 145,215 L 143,213 Z" fill="#d7d5c3" /><path d="M 123,209 L 123,210 L 124,209 Z" fill="#d7d5c3" /><path d="M 157,206 L 158,207 L 158,210 L 159,211 L 158,210 L 158,207 Z" fill="#d7d5c3" /><path d="M 126,206 L 126,207 L 127,206 Z" fill="#d7d5c3" /><path d="M 154,200 L 155,201 L 155,202 L 156,203 L 155,202 L 155,200 Z" fill="#d7d5c3" /><path d="M 152,193 L 152,195 L 153,196 L 152,195 Z" fill="#d7d5c3" /><path d="M 123,190 L 123,191 L 125,191 L 126,192 L 126,194 L 127,195 L 127,198 L 127,194 L 126,193 L 126,192 L 125,191 L 124,191 Z" fill="#d7d5c3" /><path d="M 109,190 L 106,193 L 106,205 L 107,206 L 108,206 L 110,208 L 108,206 L 107,206 L 106,205 L 106,193 Z" fill="#d7d5c3" /><path d="M 113,188 L 112,189 L 113,188 L 119,188 L 120,189 L 119,188 Z" fill="#d7d5c3" /><path d="M 148,185 L 149,186 L 149,189 L 150,190 L 149,189 L 149,186 Z" fill="#d7d5c3" /><path d="M 146,178 L 146,180 L 147,181 L 146,180 Z" fill="#d7d5c3" /><path d="M 103,178 L 104,179 L 116,179 L 119,182 L 125,182 L 126,183 L 127,183 L 128,184 L 130,184 L 132,186 L 132,190 L 133,191 L 133,192 L 134,192 L 135,193 L 135,196 L 137,198 L 137,200 L 139,202 L 139,204 L 140,204 L 141,205 L 141,210 L 141,205 L 139,203 L 139,201 L 137,199 L 137,198 L 136,197 L 136,196 L 135,195 L 135,193 L 133,191 L 133,187 L 130,184 L 128,184 L 126,182 L 121,182 L 120,181 L 119,181 L 118,180 L 117,180 L 116,179 L 104,179 Z" fill="#d7d5c3" /><path d="M 255,177 L 255,178 L 256,177 L 257,177 Z" fill="#d7d5c3" /><path d="M 244,176 L 244,178 Z" fill="#d7d5c3" /><path d="M 73,175 L 85,175 L 86,176 L 87,176 L 88,177 L 86,175 Z" fill="#d7d5c3" /><path d="M 255,172 L 256,173 Z" fill="#d7d5c3" /><path d="M 135,169 L 136,170 L 139,170 L 144,175 L 139,170 L 136,170 Z" fill="#d7d5c3" /><path d="M 253,168 L 254,169 Z" fill="#d7d5c3" /><path d="M 78,167 L 74,171 L 74,172 L 73,173 L 74,172 L 74,171 Z" fill="#d7d5c3" /><path d="M 118,166 L 119,167 L 128,167 L 129,168 L 128,167 L 119,167 Z" fill="#d7d5c3" /><path d="M 249,163 L 250,164 L 250,165 L 251,166 L 250,165 L 250,164 Z" fill="#d7d5c3" /><path d="M 94,163 L 95,164 L 105,164 L 106,165 L 106,164 L 95,164 Z" fill="#d7d5c3" /><path d="M 80,163 L 80,164 L 79,165 L 80,164 Z" fill="#d7d5c3" /><path d="M 246,160 L 247,161 L 247,160 Z" fill="#d7d5c3" /><path d="M 229,159 L 229,160 L 231,160 L 232,161 L 232,163 L 234,165 L 235,165 L 236,166 L 236,168 L 239,171 L 239,173 L 240,174 L 242,174 L 240,174 L 239,173 L 239,171 L 236,168 L 236,165 L 234,165 L 232,163 L 232,161 L 231,160 L 230,160 Z" fill="#d7d5c3" /><path d="M 244,156 L 245,157 Z" fill="#d7d5c3" /><path d="M 86,156 L 85,157 Z" fill="#d7d5c3" /><path d="M 241,153 L 242,154 Z" fill="#d7d5c3" /><path d="M 223,152 L 224,153 L 225,153 L 227,155 L 227,157 L 227,155 L 225,153 L 224,153 Z" fill="#d7d5c3" /><path d="M 67,152 L 69,154 L 71,154 L 72,155 L 73,155 L 75,157 L 77,157 L 78,158 L 78,157 L 77,157 L 76,156 L 74,156 L 73,155 L 72,155 L 71,154 L 69,154 Z" fill="#d7d5c3" /><path d="M 94,150 L 89,155 Z" fill="#d7d5c3" /><path d="M 237,148 L 238,149 Z" fill="#d7d5c3" /><path d="M 97,148 L 97,149 L 98,148 Z" fill="#d7d5c3" /><path d="M 68,148 L 67,149 L 68,148 L 69,148 Z" fill="#d7d5c3" /><path d="M 235,144 L 235,146 Z" fill="#d7d5c3" /><path d="M 102,144 L 101,145 L 100,145 L 100,146 Z" fill="#d7d5c3" /><path d="M 232,141 L 233,142 Z" fill="#d7d5c3" /><path d="M 106,141 L 104,143 Z" fill="#d7d5c3" /><path d="M 110,138 L 108,140 L 109,140 L 110,139 Z" fill="#d7d5c3" /><path d="M 228,136 L 229,137 Z" fill="#d7d5c3" /><path d="M 112,136 L 112,137 L 113,136 Z" fill="#d7d5c3" /><path d="M 210,135 L 213,138 L 214,138 L 215,139 L 215,141 L 218,144 L 218,146 L 219,147 L 220,147 L 221,148 L 221,147 L 219,147 L 218,146 L 218,144 L 215,141 L 215,138 L 213,138 Z" fill="#d7d5c3" /><path d="M 234,133 L 239,138 L 240,138 L 241,139 L 249,139 L 250,138 L 249,139 L 242,139 L 241,138 L 239,138 Z" fill="#d7d5c3" /><path d="M 115,133 L 115,134 L 116,133 Z" fill="#d7d5c3" /><path d="M 208,132 L 208,134 Z" fill="#d7d5c3" /><path d="M 256,131 L 255,132 L 255,134 L 255,132 Z" fill="#d7d5c3" /><path d="M 233,127 L 233,130 Z" fill="#d7d5c3" /><path d="M 95,127 L 91,131 L 91,132 L 90,133 L 89,133 L 88,134 L 86,134 L 86,135 L 84,137 L 83,137 L 80,140 L 79,140 L 77,142 L 76,142 L 71,147 L 76,142 L 77,142 L 79,140 L 80,140 L 83,137 L 84,137 L 87,134 L 88,134 L 89,133 L 90,133 L 92,131 L 92,130 L 94,128 L 95,128 L 96,127 Z" fill="#d7d5c3" /><path d="M 227,124 L 226,125 L 226,128 L 225,129 L 225,130 L 226,131 L 226,132 L 227,133 L 226,132 L 226,131 L 225,130 L 225,129 L 226,128 L 226,125 Z" fill="#d7d5c3" /><path d="M 210,119 L 209,120 L 209,122 L 209,120 Z" fill="#d7d5c3" /><path d="M 124,118 L 124,123 L 121,126 L 121,127 L 118,130 L 118,131 L 119,130 L 119,129 L 120,128 L 121,128 L 121,126 L 124,123 Z" fill="#d7d5c3" /><path d="M 250,117 L 255,122 L 255,123 L 256,124 L 255,123 L 255,122 Z" fill="#d7d5c3" /><path d="M 238,117 L 234,121 Z" fill="#d7d5c3" /><path d="M 230,116 L 229,117 L 229,119 L 229,117 Z" fill="#d7d5c3" /><path d="M 212,112 L 212,114 L 211,115 L 212,114 Z" fill="#d7d5c3" /><path d="M 104,111 L 103,112 L 103,115 L 100,118 L 99,118 L 98,119 L 87,119 L 86,118 L 86,119 L 98,119 L 99,118 L 100,118 L 103,115 L 103,112 Z" fill="#d7d5c3" /><path d="M 81,110 L 81,113 L 83,115 L 83,116 L 84,116 L 81,113 Z" fill="#d7d5c3" /><path d="M 233,109 L 232,110 L 232,111 L 231,112 L 232,111 L 232,110 Z" fill="#d7d5c3" /><path d="M 216,104 L 215,105 L 215,108 L 214,109 L 215,108 L 215,105 Z" fill="#d7d5c3" /><path d="M 236,101 L 235,102 L 235,104 L 235,102 Z" fill="#d7d5c3" /><path d="M 102,101 L 103,102 L 103,103 L 104,104 L 103,103 L 103,101 Z" fill="#d7d5c3" /><path d="M 218,98 L 218,101 Z" fill="#d7d5c3" /><path d="M 99,98 L 100,99 L 101,99 L 100,98 Z" fill="#d7d5c3" /><path d="M 86,98 L 85,99 L 84,99 L 83,100 L 83,102 L 83,100 L 84,99 L 86,99 L 87,98 Z" fill="#d7d5c3" /><path d="M 164,96 L 164,98 L 175,98 L 176,97 L 180,97 L 176,97 L 175,98 L 167,98 L 166,97 L 165,97 Z" fill="#d7d5c3" /><path d="M 88,96 L 96,96 L 97,97 L 96,96 Z" fill="#d7d5c3" /><path d="M 239,94 L 238,95 L 238,96 L 237,97 L 238,96 L 238,95 Z" fill="#d7d5c3" /><path d="M 185,94 L 185,95 L 186,94 L 189,94 Z" fill="#d7d5c3" /><path d="M 158,94 L 160,94 L 161,95 L 160,94 Z" fill="#d7d5c3" /><path d="M 197,90 L 196,91 L 193,91 L 192,92 L 193,91 L 196,91 Z" fill="#d7d5c3" /><path d="M 222,89 L 221,90 L 221,91 L 220,92 L 221,92 L 221,90 Z" fill="#d7d5c3" /><path d="M 203,87 L 202,88 L 201,88 L 200,89 L 201,88 L 202,88 Z" fill="#d7d5c3" /><path d="M 242,86 L 241,87 L 241,89 L 241,87 Z" fill="#d7d5c3" /><path d="M 211,84 L 210,85 L 208,85 L 207,86 L 208,85 L 210,85 Z" fill="#d7d5c3" /><path d="M 224,82 L 224,84 L 223,85 L 224,84 Z" fill="#d7d5c3" /><path d="M 216,82 L 215,83 L 216,82 L 217,82 Z" fill="#d7d5c3" /><path d="M 123,81 L 124,82 L 124,93 L 125,93 L 124,92 L 124,81 Z" fill="#d7d5c3" /><path d="M 244,80 L 244,81 L 243,82 L 244,81 Z" fill="#d7d5c3" /><path d="M 222,79 L 221,80 L 222,79 L 224,79 Z" fill="#d7d5c3" /><path d="M 236,77 L 235,78 L 236,77 L 244,77 Z" fill="#d7d5c3" /><path d="M 187,76 L 186,77 L 184,77 L 183,78 L 184,77 L 186,77 Z" fill="#d7d5c3" /><path d="M 165,76 L 169,80 L 178,80 L 179,79 L 178,80 L 169,80 Z" fill="#d7d5c3" /><path d="M 193,73 L 192,74 L 190,74 L 189,75 L 190,74 L 192,74 Z" fill="#d7d5c3" /><path d="M 200,70 L 199,71 L 196,71 L 195,72 L 196,71 L 199,71 Z" fill="#d7d5c3" /><path d="M 186,68 L 185,69 L 185,70 L 184,71 L 185,71 L 185,69 Z" fill="#d7d5c3" /><path d="M 206,67 L 205,68 L 204,68 L 203,69 L 204,68 L 205,68 Z" fill="#d7d5c3" /><path d="M 121,65 L 121,70 L 122,71 L 121,70 Z" fill="#d7d5c3" /><path d="M 214,64 L 213,65 L 209,65 L 209,66 L 210,65 L 213,65 Z" fill="#d7d5c3" /><path d="M 220,61 L 219,62 L 217,62 L 219,62 Z" fill="#d7d5c3" /><path d="M 124,60 L 124,66 L 125,67 L 127,67 L 128,68 L 131,68 L 132,69 L 132,70 L 133,71 L 133,72 L 135,74 L 137,74 L 138,75 L 138,77 L 140,79 L 143,79 L 145,81 L 145,82 L 148,85 L 149,85 L 150,86 L 150,87 L 151,88 L 154,88 L 157,91 L 154,88 L 151,88 L 150,87 L 150,85 L 148,85 L 145,82 L 145,81 L 143,79 L 140,79 L 138,77 L 138,75 L 137,74 L 135,74 L 133,72 L 133,70 L 131,68 L 128,68 L 127,67 L 125,67 L 124,66 Z" fill="#d7d5c3" /><path d="M 223,59 L 225,59 L 226,60 L 226,72 L 225,73 L 226,72 L 226,60 L 225,59 Z" fill="#d7d5c3" /><path d="M 109,59 L 109,60 L 111,60 L 112,61 L 114,61 L 115,62 L 115,63 L 117,63 L 118,64 L 118,63 L 116,63 L 114,61 L 113,61 L 112,60 L 110,60 Z" fill="#d7d5c3" /><path d="M 104,59 L 104,61 L 106,63 L 106,75 L 108,77 L 108,91 L 109,92 L 109,93 L 110,94 L 110,112 L 109,113 L 109,114 L 108,115 L 108,116 L 98,126 L 99,126 L 99,125 L 101,123 L 102,123 L 108,117 L 108,115 L 110,113 L 110,93 L 108,91 L 108,76 L 106,74 L 106,62 L 105,62 L 104,61 Z" fill="#d7d5c3" /><path d="M 142,58 L 149,65 L 151,65 L 157,71 L 158,71 L 162,75 L 159,72 L 159,71 L 157,71 L 151,65 L 149,65 Z" fill="#d7d5c3" /><path d="M 138,55 L 138,56 L 139,56 Z" fill="#d7d5c3" /><path d="M 179,52 L 180,53 L 181,53 L 186,58 L 181,53 L 180,53 Z" fill="#d7d5c3" /><path d="M 170,52 L 164,58 L 164,68 L 170,74 L 182,74 L 182,73 L 181,74 L 170,74 L 165,69 L 165,68 L 164,67 L 164,59 L 165,58 L 165,57 Z" fill="#d7d5c3" /><path d="M 135,52 L 135,53 L 136,53 Z" fill="#d7d5c3" /><path d="M 128,47 L 127,48 L 127,55 L 126,56 L 125,56 L 125,57 L 126,57 L 127,56 L 127,48 L 128,47 L 131,50 L 133,50 L 131,50 L 129,48 L 129,47 Z" fill="#d7d5c3" /><path d="M 88,97 L 88,98 L 86,100 L 84,100 L 84,102 L 83,103 L 82,103 L 82,113 L 85,116 L 85,117 L 86,117 L 87,118 L 98,118 L 99,117 L 100,117 L 102,115 L 102,112 L 104,110 L 104,105 L 102,103 L 102,102 L 101,101 L 101,100 L 100,100 L 98,98 L 97,98 L 96,97 Z" fill="#cbb82f" /><path d="M 105,59 L 105,61 L 106,61 L 107,62 L 107,74 L 109,76 L 109,91 L 111,93 L 111,113 L 109,115 L 109,117 L 102,124 L 101,124 L 100,125 L 100,126 L 99,127 L 97,127 L 95,129 L 94,129 L 93,130 L 93,131 L 90,134 L 89,134 L 88,135 L 87,135 L 84,138 L 83,138 L 80,141 L 79,141 L 77,143 L 76,143 L 71,148 L 70,148 L 69,149 L 68,149 L 67,150 L 67,151 L 69,153 L 71,153 L 72,154 L 73,154 L 74,155 L 76,155 L 77,156 L 78,156 L 79,157 L 79,158 L 84,158 L 84,157 L 86,155 L 88,155 L 94,149 L 96,149 L 96,148 L 97,147 L 98,147 L 99,146 L 99,145 L 100,144 L 101,144 L 102,143 L 103,143 L 106,140 L 107,140 L 110,137 L 111,137 L 111,136 L 112,135 L 113,135 L 114,134 L 114,133 L 115,132 L 116,132 L 117,131 L 117,130 L 120,127 L 120,126 L 123,123 L 123,118 L 124,117 L 125,117 L 125,94 L 124,94 L 123,93 L 123,82 L 122,81 L 122,72 L 120,70 L 120,65 L 118,65 L 117,64 L 115,64 L 114,63 L 114,62 L 112,62 L 111,61 L 109,61 L 108,60 L 108,59 Z" fill="#cbb82f" /><path d="M 171,52 L 166,57 L 166,58 L 165,59 L 165,67 L 166,68 L 166,69 L 170,73 L 181,73 L 182,72 L 183,72 L 183,71 L 184,70 L 184,69 L 186,67 L 186,59 L 181,54 L 180,54 L 178,52 Z" fill="#cbb82f" /><path d="M 128,48 L 128,56 L 126,58 L 125,58 L 125,66 L 127,66 L 128,67 L 131,67 L 134,70 L 134,72 L 135,73 L 137,73 L 139,75 L 139,77 L 140,78 L 143,78 L 146,81 L 146,82 L 148,84 L 150,84 L 151,85 L 151,87 L 154,87 L 158,91 L 158,93 L 160,93 L 162,95 L 164,95 L 165,96 L 166,96 L 167,97 L 175,97 L 176,96 L 180,96 L 181,95 L 184,95 L 184,94 L 185,93 L 189,93 L 190,92 L 191,92 L 193,90 L 196,90 L 197,89 L 199,89 L 201,87 L 202,87 L 203,86 L 206,86 L 208,84 L 210,84 L 211,83 L 214,83 L 216,81 L 218,81 L 219,80 L 220,80 L 222,78 L 224,78 L 224,73 L 225,72 L 225,60 L 223,60 L 222,61 L 221,61 L 219,63 L 217,63 L 216,64 L 215,64 L 213,66 L 210,66 L 209,67 L 207,67 L 205,69 L 204,69 L 203,70 L 201,70 L 199,72 L 196,72 L 195,73 L 194,73 L 192,75 L 190,75 L 189,76 L 188,76 L 186,78 L 184,78 L 183,79 L 180,79 L 178,81 L 169,81 L 164,76 L 162,76 L 158,72 L 157,72 L 151,66 L 149,66 L 141,58 L 140,58 L 139,57 L 138,57 L 137,56 L 137,55 L 136,54 L 135,54 L 134,53 L 134,52 L 133,51 L 131,51 Z" fill="#cbb82f" /><path d="M 239,117 L 234,122 L 234,132 L 239,137 L 241,137 L 242,138 L 249,138 L 250,137 L 251,137 L 254,134 L 254,132 L 256,130 L 256,125 L 254,123 L 254,122 L 249,117 Z" fill="#2aa6de" /><path d="M 236,78 L 235,79 L 227,79 L 226,80 L 226,81 L 225,82 L 225,84 L 223,86 L 223,89 L 222,90 L 222,92 L 221,93 L 220,93 L 220,96 L 219,97 L 219,101 L 218,102 L 217,102 L 217,104 L 216,105 L 216,108 L 214,110 L 214,111 L 213,112 L 213,114 L 211,116 L 211,119 L 210,120 L 210,122 L 209,123 L 208,123 L 208,131 L 209,132 L 209,134 L 210,134 L 213,137 L 215,137 L 216,138 L 216,141 L 219,144 L 219,146 L 221,146 L 222,147 L 222,148 L 223,149 L 223,151 L 224,152 L 225,152 L 228,155 L 228,157 L 230,159 L 231,159 L 233,161 L 233,163 L 234,164 L 236,164 L 237,165 L 237,168 L 240,171 L 240,173 L 242,173 L 243,174 L 243,175 L 244,175 L 245,176 L 245,178 L 254,178 L 254,177 L 255,176 L 257,176 L 257,174 L 256,174 L 254,172 L 254,170 L 249,165 L 249,164 L 248,163 L 248,162 L 247,162 L 245,160 L 245,158 L 239,152 L 239,150 L 238,150 L 236,148 L 236,147 L 235,147 L 234,146 L 234,144 L 230,140 L 230,138 L 229,138 L 227,136 L 227,134 L 225,132 L 225,131 L 224,130 L 224,129 L 225,128 L 225,125 L 227,123 L 227,120 L 228,119 L 228,117 L 230,115 L 230,112 L 231,111 L 231,110 L 233,108 L 233,105 L 234,104 L 234,102 L 236,100 L 236,97 L 237,96 L 237,95 L 239,93 L 239,90 L 240,89 L 240,87 L 242,85 L 242,82 L 243,81 L 243,80 L 245,78 Z" fill="#2aa6de" /><path d="M 0,0 L 0,280 L 313,280 L 313,0 Z" fill="#fafafa" /><path d="M 113,189 L 112,190 L 110,190 L 107,193 L 107,205 L 108,205 L 111,208 L 111,209 L 112,210 L 122,210 L 122,209 L 123,208 L 124,208 L 125,207 L 125,206 L 126,205 L 127,205 L 127,199 L 126,198 L 126,195 L 125,194 L 125,192 L 123,192 L 122,191 L 122,190 L 120,190 L 119,189 Z" fill="#a77eb6" /><path d="M 81,163 L 81,164 L 79,166 L 79,167 L 75,171 L 75,172 L 73,174 L 86,174 L 89,177 L 103,177 L 104,178 L 116,178 L 117,179 L 118,179 L 119,180 L 120,180 L 121,181 L 126,181 L 128,183 L 130,183 L 134,187 L 134,191 L 136,193 L 136,195 L 137,196 L 137,197 L 138,198 L 138,199 L 140,201 L 140,203 L 142,205 L 142,210 L 143,210 L 144,211 L 144,213 L 146,215 L 146,217 L 148,219 L 148,224 L 149,224 L 151,226 L 151,228 L 153,230 L 153,232 L 154,233 L 155,232 L 155,231 L 157,229 L 157,228 L 158,227 L 159,227 L 160,226 L 160,224 L 161,223 L 162,223 L 162,217 L 161,217 L 160,216 L 160,214 L 159,213 L 159,212 L 157,210 L 157,207 L 156,206 L 156,204 L 154,202 L 154,201 L 153,200 L 153,197 L 151,195 L 151,193 L 150,192 L 150,191 L 148,189 L 148,186 L 147,185 L 147,182 L 145,180 L 145,178 L 144,177 L 144,176 L 139,171 L 136,171 L 134,169 L 129,169 L 128,168 L 119,168 L 117,166 L 106,166 L 105,165 L 95,165 L 93,163 Z" fill="#a77eb6" />
</svg>